<?xml version="1.0" standalone="no"?>
<svg xmlns="http://www.w3.org/2000/svg" viewBox="0 0 113 72" width="113" height="72"><g fill="#5c989b" color="#5c989b" transform="translate(34.185 0) scale(0.8461539) "><svg width="52.0" height="52.0" x="0.0" y="0.0" viewBox="0 0 52 52"><path fill="currentColor" fill-rule="evenodd" d="M48.231 30.94l-.26 1.04c0 .173-.087.173-.087.173v-.173c.867-7.973-10.4-12.566-22.966-12.566-2.514 0-5.2.173-7.714.606-3.986.607-7.02 1.56-9.186 2.6.26 2.774 2.773 3.12 4.333 3.12h.52c2.253-.086 5.027-.52 6.413-.693.174 0 .434-.087.52-.087 1.56-.173 3.207-.346 4.767-.346 7.02 0 14.04 1.905 17.767 6.153 3.639 4.16 2.426 9.013-2.514 13.26-4.506 3.813-10.314 4.592-13.347 4.767h-.693c-3.293 0-6.153-.954-6.673-1.214-4.853-1.906-4.16-5.113-1.473-6.846 2.166-1.387 4.853-1.994 7.366-1.994 4.506 0 8.494 1.907 8.06 4.42-.26 1.734-2.34 2.687-3.987 2.687-.433 0-.867-.087-1.213-.261l-.087-.086c-.086-.173-.173-.26-.606-.433a5.446 5.446 0 0 0-1.647-.26c-1.56 0-3.206.607-3.64 1.473-.26.606.26 1.04.954 1.3.78.26 1.646.347 2.426.347.954 0 1.734-.087 2.167-.174 5.027-.867 9.446-3.206 11.267-5.286 1.473-1.733 1.126-4.16-2.947-6.067-3.467-1.733-7.887-2.08-11.18-2.08-2.167 0-3.813.174-4.42.26-.433.087-3.207.434-6.24.434h-.693c-1.04 0-1.994-.087-3.034-.261-2.773-.346-5.98-2.686-6.933-6.067a12.367 12.367 0 0 1-.173-.952v-.52c-.087-2.774-.26-6.674 1.646-9.36 3.814-5.287 11.614-7.627 19.587-7.627 11.093 0 22.62 4.68 24.18 12.827.086 0 .693 3.726-.26 7.886M23.791 3.207a22.726 22.726 0 0 1 20.02 8.493c-5.113-3.033-11.613-4.853-18.633-4.68-6.327.087-12.134 1.734-16.987 4.42 3.813-4.506 9.273-7.626 15.6-8.233m28.08 20.28c-.52-5.027-2.427-9.793-5.633-13.78A25.978 25.978 0 0 0 25.958 0c-.867 0-1.647 0-2.514.087-6.846.693-13.086 3.987-17.506 9.36C1.518 14.82-.562 21.58.13 28.427 1.344 41.947 12.698 52 25.958 52c.866 0 1.646 0 2.513-.086 6.933-.695 13.173-3.987 17.593-9.361a26.535 26.535 0 0 0 5.807-19.066"></path></svg></g><path fill="#0b4e54" fill-rule="nonzero" d="M7.82 0.94L7.82 0.94Q10.49 0.94 12.19 2.42Q13.90 3.91 13.90 5.90L13.90 5.90Q13.90 7.46 12.91 8.48Q11.93 9.50 10.58 9.50Q9.24 9.50 8.33 8.64L8.33 8.64Q7.42 7.73 7.42 6.68Q7.42 5.64 7.87 4.94Q8.33 4.25 8.98 4.25L8.98 4.25Q9.34 4.25 9.58 4.45Q9.82 4.66 9.82 4.96Q9.82 5.26 9.48 5.72Q9.14 6.19 9.14 6.71Q9.14 7.22 9.55 7.57Q9.96 7.92 10.62 7.92Q11.28 7.92 11.72 7.40Q12.17 6.89 12.17 6.02L12.17 6.02Q12.17 4.75 11.02 3.70L11.02 3.70Q9.91 2.62 7.82 2.62L7.82 2.62Q5.26 2.62 3.60 4.88Q1.94 7.15 1.94 10.22Q1.94 13.30 3.67 15.64Q5.40 17.98 8.04 17.98L8.04 17.98Q9.22 17.98 10.24 17.66Q11.26 17.35 11.78 16.92L11.78 16.92Q13.06 15.86 13.33 15.86Q13.61 15.86 13.80 16.04Q13.99 16.22 13.99 16.49L13.99 16.49Q13.99 17.42 12.20 18.54Q10.42 19.66 8.02 19.66L8.02 19.66Q4.56 19.66 2.28 16.94L2.28 16.94Q0 14.18 0 10.26Q0 6.34 2.23 3.64Q4.46 0.94 7.82 0.94ZM18.94 2.26L18.94 2.26L18.82 10.30L18.94 18.34Q18.94 19.54 18.02 19.54Q17.11 19.54 17.11 18.34L17.11 18.34L17.23 10.30L17.11 2.26Q17.11 1.06 18.02 1.06Q18.94 1.06 18.94 2.26ZM23.52 1.90L23.52 1.90Q24.50 1.90 24.50 3.05L24.50 3.05Q24.50 3.58 24.16 4.04Q23.81 4.51 23.33 4.51L23.33 4.51Q22.32 4.51 22.32 3.29L22.32 3.29Q22.32 2.71 22.67 2.30Q23.02 1.90 23.52 1.90ZM24.31 8.26L24.31 8.26L24.19 13.30L24.31 18.34Q24.31 19.54 23.40 19.54Q22.49 19.54 22.49 18.34L22.49 18.34L22.61 13.30L22.49 8.26Q22.49 7.06 23.40 7.06Q24.31 7.06 24.31 8.26ZM45.14 11.74L45.14 11.74L45.02 15.50L45.02 16.54Q45.07 17.52 45.50 17.71L45.50 17.71Q45.67 17.76 45.89 17.80Q46.10 17.83 46.19 17.88Q46.27 17.93 46.27 18.07L46.27 18.07Q46.27 18.70 45.88 19.12Q45.48 19.54 44.95 19.54L44.95 19.54Q44.06 19.54 43.70 18.84Q43.34 18.14 43.34 16.70L43.34 16.70L43.44 12.29Q43.44 10.63 42.79 9.64Q42.14 8.64 41.02 8.64Q39.89 8.64 38.81 10.01Q37.73 11.38 37.30 13.10L37.30 13.10L37.37 18.31Q37.37 19.54 36.46 19.54L36.46 19.54Q35.35 19.54 35.35 17.89Q35.35 16.25 35.83 13.10L35.83 13.10Q35.83 8.64 33.38 8.64L33.38 8.64Q32.26 8.64 31.18 10.01Q30.10 11.38 29.66 13.10L29.66 13.10L29.74 18.31Q29.74 19.54 28.82 19.54L28.82 19.54Q27.72 19.54 27.72 17.89Q27.72 16.25 28.20 13.10L28.20 13.10Q28.20 12.10 28.00 10.27Q27.79 8.45 27.79 8.06Q27.79 7.68 28.06 7.37Q28.32 7.06 28.73 7.06Q29.14 7.06 29.40 7.37Q29.66 7.68 29.66 8.04Q29.66 8.40 29.65 9.12Q29.64 9.84 29.64 10.10L29.64 10.10Q31.25 7.06 33.72 7.06L33.72 7.06Q35.11 7.06 36.01 7.87Q36.91 8.69 37.27 10.10L37.27 10.10Q38.88 7.06 41.35 7.06L41.35 7.06Q43.18 7.06 44.14 8.42L44.14 8.42Q45.14 9.79 45.14 11.74ZM58.34 13.49L58.34 13.49Q58.34 15.24 58.60 16.40Q58.85 17.57 59.23 17.71L59.23 17.71Q59.38 17.78 59.58 17.81Q59.78 17.83 59.87 17.88Q59.95 17.93 59.95 18.07L59.95 18.07Q59.95 18.74 59.59 19.14Q59.23 19.54 58.55 19.54Q57.86 19.54 57.48 18.66Q57.10 17.78 57.10 16.37L57.10 16.37Q56.45 17.76 55.30 18.65Q54.14 19.54 52.69 19.54Q51.24 19.54 50.21 18.58L50.21 18.58Q48.29 16.80 48.29 13.56L48.29 13.56Q48.29 10.94 49.80 9Q51.31 7.06 53.69 7.06L53.69 7.06Q55.49 7.06 56.81 8.28L56.81 8.28Q56.81 7.06 57.72 7.06L57.72 7.06Q58.82 7.06 58.82 8.70Q58.82 10.34 58.34 13.49ZM56.95 13.70L56.95 13.70L56.83 10.01Q55.42 8.62 53.83 8.62Q52.25 8.62 51.12 10.03Q49.99 11.45 49.99 13.45Q49.99 15.46 50.74 16.72Q51.48 17.98 52.80 17.98Q54.12 17.98 55.24 16.80Q56.35 15.62 56.95 13.70ZM66.82 18.62Q66.82 18.89 66.54 19.21Q66.26 19.54 65.82 19.54Q65.38 19.54 65.12 19.21Q64.87 18.89 64.86 18.62Q64.85 18.36 64.85 18.10Q64.85 17.83 64.90 16.28Q64.94 14.74 64.94 10.30Q64.94 5.86 65.21 4.32L65.21 4.32Q63.94 4.22 62.40 3.77L62.40 3.77Q59.57 2.90 59.57 1.90L59.57 1.90Q59.54 1.34 60.05 1.08L60.05 1.08Q60.29 0.96 60.52 0.96Q60.74 0.96 60.98 1.15L60.98 1.15Q61.34 1.34 61.61 1.54L61.61 1.54Q62.54 2.18 65.57 2.64L65.57 2.64Q66.19 1.37 67.51 0.68Q68.83 0 70.33 0Q71.83 0 72.65 0.67L72.65 0.67Q73.51 1.32 73.51 2.20Q73.51 3.07 72.53 3.82Q71.54 4.56 69.05 4.56L69.05 4.56Q67.68 4.56 66.91 4.49L66.91 4.49Q66.67 5.21 66.67 9.31Q66.67 13.42 66.74 15.89Q66.82 18.36 66.82 18.62ZM70.15 1.68L70.15 1.68Q68.14 1.68 67.32 2.83L67.32 2.83Q67.94 2.95 68.69 2.95Q69.43 2.95 70.57 2.74Q71.71 2.52 71.71 2.18L71.71 2.18Q71.71 1.68 70.15 1.68ZM76.99 1.90L76.99 1.90Q77.98 1.90 77.98 3.05L77.98 3.05Q77.98 3.58 77.63 4.04Q77.28 4.51 76.80 4.51L76.80 4.51Q75.79 4.51 75.79 3.29L75.79 3.29Q75.79 2.71 76.14 2.30Q76.49 1.90 76.99 1.90ZM77.78 8.26L77.78 8.26L77.66 13.30L77.78 18.34Q77.78 19.54 76.87 19.54Q75.96 19.54 75.96 18.34L75.96 18.34L76.08 13.30L75.96 8.26Q75.96 7.06 76.87 7.06Q77.78 7.06 77.78 8.26ZM98.62 11.74L98.62 11.74L98.50 15.50L98.50 16.54Q98.54 17.52 98.98 17.71L98.98 17.71Q99.14 17.76 99.36 17.80Q99.58 17.83 99.66 17.88Q99.74 17.93 99.74 18.07L99.74 18.07Q99.74 18.70 99.35 19.12Q98.95 19.54 98.42 19.54L98.42 19.54Q97.54 19.54 97.18 18.84Q96.82 18.14 96.82 16.70L96.82 16.70L96.91 12.29Q96.91 10.63 96.26 9.64Q95.62 8.64 94.49 8.64Q93.36 8.64 92.28 10.01Q91.20 11.38 90.77 13.10L90.77 13.10L90.84 18.31Q90.84 19.54 89.93 19.54L89.93 19.54Q88.82 19.54 88.82 17.89Q88.82 16.25 89.30 13.10L89.30 13.10Q89.30 8.64 86.86 8.64L86.86 8.64Q85.73 8.64 84.65 10.01Q83.57 11.38 83.14 13.10L83.14 13.10L83.21 18.31Q83.21 19.54 82.30 19.54L82.30 19.54Q81.19 19.54 81.19 17.89Q81.19 16.25 81.67 13.10L81.67 13.10Q81.67 12.10 81.47 10.27Q81.26 8.45 81.26 8.06Q81.26 7.68 81.53 7.37Q81.79 7.06 82.20 7.06Q82.61 7.06 82.87 7.37Q83.14 7.68 83.14 8.04Q83.14 8.40 83.12 9.12Q83.11 9.84 83.11 10.10L83.11 10.10Q84.72 7.06 87.19 7.06L87.19 7.06Q88.58 7.06 89.48 7.87Q90.38 8.69 90.74 10.10L90.74 10.10Q92.35 7.06 94.82 7.06L94.82 7.06Q96.65 7.06 97.61 8.42L97.61 8.42Q98.62 9.79 98.62 11.74ZM108.22 8.50L108.22 8.50Q106.63 8.50 105.56 9.68Q104.50 10.87 104.16 12.46L104.16 12.46Q105.46 12.84 107.08 12.84Q108.70 12.84 109.68 12.29Q110.66 11.74 110.66 10.78Q110.66 9.82 110.00 9.16Q109.34 8.50 108.22 8.50ZM107.18 14.35L107.18 14.35Q105.94 14.35 104.14 13.99L104.14 13.99Q104.28 15.70 105.40 16.90Q106.51 18.10 108 18.10Q109.49 18.10 110.45 17.36Q111.41 16.63 111.71 16.63Q112.01 16.63 112.19 16.81Q112.37 16.99 112.37 17.26L112.37 17.26Q112.37 17.93 110.99 18.79Q109.61 19.66 108 19.66L108 19.66Q105.50 19.66 104.03 17.89Q102.55 16.13 102.46 13.68L102.46 13.68Q101.18 13.27 101.18 12.43L101.18 12.43Q101.18 11.88 101.59 11.71L101.59 11.71Q101.74 11.66 101.96 11.66Q102.19 11.66 102.60 11.88L102.60 11.88Q103.15 9.70 104.60 8.32Q106.06 6.94 108.01 6.94Q109.97 6.94 111.17 8.02Q112.37 9.10 112.37 10.84Q112.37 12.58 110.88 13.46Q109.39 14.35 107.18 14.35Z" transform="translate(0, 52)"></path></svg>